<?xml version="1.0" encoding="UTF-8"?>
<svg xmlns="http://www.w3.org/2000/svg" xmlns:xlink="http://www.w3.org/1999/xlink" width="148.25pt" height="24.3945pt" viewBox="0 0 148.25 24.3945">
<defs>
<clipPath id="clip-0">
<path clip-rule="nonzero" d="M 2.160156 3 L 19 3 L 19 21 L 2.160156 21 Z M 2.160156 3 "/>
</clipPath>
<clipPath id="clip-1">
<path clip-rule="nonzero" d="M 84 0 L 99 0 L 99 23.804688 L 84 23.804688 Z M 84 0 "/>
</clipPath>
<clipPath id="clip-2">
<path clip-rule="nonzero" d="M 91 0 L 106 0 L 106 23.804688 L 91 23.804688 Z M 91 0 "/>
</clipPath>
<clipPath id="clip-3">
<path clip-rule="nonzero" d="M 139 2 L 145.492188 2 L 145.492188 12 L 139 12 Z M 139 2 "/>
</clipPath>
<clipPath id="clip-4">
<path clip-rule="nonzero" d="M 139 12 L 145.492188 12 L 145.492188 22 L 139 22 Z M 139 12 "/>
</clipPath>
</defs>
<path fill-rule="nonzero" fill="rgb(56.898499%, 57.598877%, 58.399963%)" fill-opacity="1" d="M 64.464844 13.160156 C 65.535156 13.488281 67.960938 14.265625 67.960938 16.929688 C 67.960938 17.9375 67.5625 19.066406 66.46875 19.894531 C 65.054688 21.027344 63.160156 21.101562 62.199219 21.101562 C 60.757812 21.101562 59.558594 20.851562 58.546875 20.472656 C 58.414062 20.421875 58.277344 20.371094 58.144531 20.324219 L 58.011719 20.09375 C 58.121094 19.117188 58.121094 18.988281 58.171875 17.988281 L 58.4375 17.910156 C 58.917969 18.261719 60.09375 19.117188 62.144531 19.117188 C 64.253906 19.117188 65.027344 18.007812 65.027344 17.230469 C 65.027344 16.078125 63.882812 15.699219 62.253906 15.195312 L 61.402344 14.921875 C 60.308594 14.59375 57.90625 13.867188 57.90625 11.28125 C 57.90625 8.691406 60.308594 7.410156 63.292969 7.410156 C 65.269531 7.410156 66.652344 7.9375 67.132812 8.113281 L 67.265625 8.289062 C 67.160156 9.21875 67.132812 9.320312 67.050781 10.273438 L 66.8125 10.375 C 66.148438 9.972656 65.105469 9.371094 63.371094 9.371094 C 63 9.371094 62.625 9.394531 62.226562 9.492188 C 61.425781 9.695312 60.757812 10.222656 60.757812 11.003906 C 60.757812 12.082031 61.851562 12.410156 63.507812 12.886719 L 64.464844 13.160156 "/>
<path fill-rule="nonzero" fill="rgb(56.898499%, 57.598877%, 58.399963%)" fill-opacity="1" d="M 80.496094 14.167969 C 80.523438 14.695312 80.496094 16.378906 79.878906 17.507812 C 79.109375 18.886719 77.828125 19.191406 76.84375 19.191406 C 76.308594 19.191406 75.746094 19.089844 75.269531 18.863281 C 73.160156 17.859375 73.132812 15.324219 73.132812 14.316406 C 73.132812 13.261719 73.214844 11.804688 73.933594 10.777344 C 74.867188 9.371094 76.363281 9.316406 76.867188 9.316406 C 78.363281 9.316406 79.214844 9.972656 79.722656 10.75 C 80.386719 11.855469 80.496094 13.539062 80.496094 14.167969 M 83.40625 14.066406 C 83.347656 12.308594 83.003906 10.546875 81.777344 9.21875 C 80.601562 7.960938 78.816406 7.410156 77 7.410156 C 74.335938 7.410156 72.789062 8.4375 72.039062 9.167969 C 70.253906 10.851562 70.199219 13.3125 70.199219 14.265625 C 70.199219 15.097656 70.226562 17.65625 72.039062 19.390625 C 72.894531 20.222656 74.414062 21.078125 76.816406 21.078125 C 78.683594 21.078125 80.257812 20.648438 81.429688 19.542969 C 82.3125 18.714844 82.871094 17.734375 83.160156 16.503906 C 83.347656 15.75 83.40625 14.921875 83.40625 14.066406 "/>
<path fill-rule="nonzero" fill="rgb(56.898499%, 57.598877%, 58.399963%)" fill-opacity="1" d="M 54.863281 14.273438 C 54.863281 15.148438 54.152344 15.859375 53.277344 15.859375 C 52.398438 15.859375 51.691406 15.148438 51.691406 14.273438 C 51.691406 13.398438 52.398438 12.683594 53.277344 12.683594 C 54.152344 12.683594 54.863281 13.398438 54.863281 14.273438 "/>
<g clip-path="url(#clip-0)">
<path fill-rule="nonzero" fill="rgb(15.299988%, 14.498901%, 14.498901%)" fill-opacity="1" d="M 18.324219 3.234375 C 18.296875 5.164062 18.269531 6.347656 18.269531 8.105469 C 18.269531 12.324219 18.347656 16.519531 18.5625 20.742188 L 18.429688 20.894531 C 16.164062 20.863281 15.632812 20.894531 13.628906 20.96875 L 13.496094 20.816406 C 13.628906 17.273438 13.628906 16.445312 13.578125 13.054688 C 12.507812 13.03125 11.441406 13.003906 10.378906 13.003906 C 9.335938 13.003906 8.351562 13.03125 7.175781 13.082031 C 7.203125 16.71875 7.230469 17.628906 7.386719 20.742188 L 7.257812 20.894531 C 4.910156 20.863281 4.429688 20.894531 2.480469 20.96875 L 2.347656 20.816406 C 2.398438 18.707031 2.457031 17.476562 2.457031 15.214844 C 2.457031 8.984375 2.296875 5.898438 2.160156 3.308594 L 2.320312 3.15625 C 4.640625 3.15625 5.042969 3.15625 7.097656 3.082031 L 7.230469 3.234375 L 7.175781 9.863281 C 8.109375 9.863281 9.066406 9.890625 10.003906 9.890625 C 11.203125 9.890625 12.375 9.863281 13.550781 9.839844 C 13.523438 6.875 13.523438 6.148438 13.335938 3.308594 L 13.46875 3.15625 C 15.710938 3.15625 16.054688 3.15625 18.191406 3.082031 L 18.324219 3.234375 "/>
</g>
<path fill-rule="nonzero" fill="rgb(15.299988%, 14.498901%, 14.498901%)" fill-opacity="1" d="M 25.703125 12.679688 C 25.785156 11.898438 25.972656 10.84375 26.988281 10.242188 C 27.308594 10.039062 27.679688 9.964844 28.054688 9.964844 C 28.933594 9.964844 29.464844 10.390625 29.761719 10.84375 C 30.132812 11.398438 30.160156 12 30.160156 12.578125 Z M 33.789062 17.171875 C 32.773438 17.675781 31.570312 18.253906 29.625 18.253906 C 28.027344 18.253906 26.933594 17.777344 26.292969 16.871094 C 25.890625 16.34375 25.8125 15.84375 25.703125 15.339844 L 34.320312 15.1875 L 34.480469 15.015625 C 34.453125 13.78125 34.429688 12.527344 34.054688 11.269531 C 33.121094 8.308594 31.066406 7.703125 30.160156 7.5 C 29.496094 7.328125 28.882812 7.277344 28.265625 7.277344 C 24.078125 7.277344 21.304688 9.863281 21.304688 14.210938 C 21.304688 15.390625 21.519531 16.621094 21.945312 17.5 C 23.492188 20.890625 27.117188 21.195312 29.042969 21.195312 C 31.253906 21.195312 32.214844 20.816406 33.625 20.289062 L 33.789062 20.085938 L 33.972656 17.25 L 33.789062 17.171875 "/>
<path fill-rule="nonzero" fill="rgb(15.299988%, 14.498901%, 14.498901%)" fill-opacity="1" d="M 45.042969 12.679688 C 46.511719 13.207031 48.5625 13.933594 48.5625 16.695312 C 48.5625 16.871094 48.5625 17.046875 48.535156 17.25 C 48.054688 20.839844 44.054688 21.195312 42.027344 21.195312 C 40.082031 21.195312 38.960938 20.792969 37.65625 20.339844 L 37.523438 20.113281 C 37.628906 18.859375 37.65625 18.578125 37.707031 17.273438 L 37.949219 17.171875 C 38.347656 17.476562 38.5625 17.652344 39.015625 17.878906 C 40 18.355469 41.09375 18.578125 41.84375 18.578125 C 43.332031 18.578125 43.949219 17.902344 43.949219 17.273438 C 43.949219 16.371094 42.773438 15.992188 42.054688 15.765625 L 41.042969 15.414062 C 39.789062 14.964844 37.574219 14.160156 37.574219 11.472656 C 37.574219 10.46875 37.949219 9.714844 38.292969 9.261719 C 39.679688 7.378906 42.296875 7.277344 43.601562 7.277344 C 45.335938 7.277344 46.429688 7.578125 47.679688 7.90625 L 47.8125 8.054688 L 47.550781 10.792969 L 47.308594 10.871094 C 46.640625 10.46875 45.601562 9.816406 43.976562 9.816406 C 42.320312 9.816406 42.105469 10.644531 42.105469 10.945312 C 42.105469 11.644531 42.828125 11.925781 43.734375 12.226562 L 45.042969 12.679688 "/>
<g clip-path="url(#clip-1)">
<path fill-rule="nonzero" fill="rgb(56.898499%, 57.598877%, 58.399963%)" fill-opacity="1" d="M 92.503906 2.5625 C 92.457031 2.660156 84.730469 19.117188 84.730469 19.117188 C 84.308594 19.988281 84.125 20.367188 84.125 21.113281 C 84.125 22.625 85.269531 23.804688 86.726562 23.804688 C 88.433594 23.804688 89.101562 22.472656 89.585938 21.503906 L 97.660156 4.382812 C 97.890625 3.894531 98.109375 3.359375 98.109375 2.628906 C 98.109375 1.15625 96.953125 0 95.480469 0 C 93.746094 0 93.027344 1.484375 92.503906 2.5625 M 85.019531 21.113281 C 85.019531 20.570312 85.136719 20.332031 85.515625 19.542969 C 85.539062 19.496094 93.269531 3.039062 93.269531 3.039062 C 93.796875 1.941406 94.308594 0.894531 95.480469 0.894531 C 96.46875 0.894531 97.214844 1.644531 97.214844 2.628906 C 97.214844 3.179688 97.042969 3.59375 96.855469 4 C 96.855469 4 88.789062 21.089844 88.785156 21.101562 C 88.339844 21.992188 87.882812 22.910156 86.726562 22.910156 C 85.769531 22.910156 85.019531 22.121094 85.019531 21.113281 "/>
</g>
<g clip-path="url(#clip-2)">
<path fill-rule="nonzero" fill="rgb(56.898499%, 57.598877%, 58.399963%)" fill-opacity="1" d="M 99.90625 2.566406 C 99.859375 2.660156 92.128906 19.117188 92.128906 19.117188 C 91.710938 19.988281 91.527344 20.367188 91.527344 21.113281 C 91.527344 22.625 92.667969 23.804688 94.125 23.804688 C 95.839844 23.804688 96.503906 22.472656 96.988281 21.5 L 105.0625 4.382812 C 105.285156 3.917969 105.511719 3.363281 105.511719 2.628906 C 105.511719 1.15625 104.359375 0 102.882812 0 C 101.144531 0 100.425781 1.484375 99.90625 2.566406 M 92.421875 21.113281 C 92.421875 20.570312 92.535156 20.332031 92.917969 19.542969 C 92.941406 19.496094 100.671875 3.039062 100.671875 3.039062 C 101.199219 1.945312 101.710938 0.894531 102.882812 0.894531 C 103.871094 0.894531 104.621094 1.644531 104.621094 2.628906 C 104.621094 3.179688 104.449219 3.59375 104.253906 4 C 104.253906 4 96.191406 21.089844 96.183594 21.101562 C 95.742188 21.992188 95.285156 22.910156 94.125 22.910156 C 93.167969 22.910156 92.421875 22.121094 92.421875 21.113281 "/>
</g>
<path fill-rule="nonzero" fill="rgb(56.898499%, 57.598877%, 58.399963%)" fill-opacity="1" d="M 109.1875 3.691406 C 109.128906 3.535156 109.105469 3.417969 109.105469 3.253906 C 109.105469 2.757812 109.539062 2.40625 110.011719 2.40625 C 110.410156 2.40625 110.660156 2.664062 110.8125 2.984375 L 112.632812 7.878906 L 114.460938 2.984375 C 114.613281 2.664062 114.859375 2.40625 115.261719 2.40625 C 115.730469 2.40625 116.164062 2.757812 116.164062 3.253906 C 116.164062 3.417969 116.140625 3.535156 116.082031 3.691406 L 113.507812 10.246094 C 113.351562 10.621094 113.152344 10.925781 112.632812 10.925781 C 112.117188 10.925781 111.917969 10.621094 111.761719 10.246094 L 109.1875 3.691406 "/>
<path fill-rule="nonzero" fill="rgb(56.898499%, 57.598877%, 58.399963%)" fill-opacity="1" d="M 117.648438 3.679688 C 117.847656 3.140625 118.308594 2.707031 118.90625 2.707031 C 119.53125 2.707031 119.964844 3.117188 120.164062 3.679688 L 122.472656 10.082031 C 122.542969 10.273438 122.566406 10.4375 122.566406 10.519531 C 122.566406 10.976562 122.191406 11.296875 121.753906 11.296875 C 121.261719 11.296875 121.011719 11.035156 120.894531 10.683594 L 120.542969 9.578125 L 117.269531 9.578125 L 116.917969 10.671875 C 116.800781 11.035156 116.554688 11.296875 116.074219 11.296875 C 115.601562 11.296875 115.199219 10.941406 115.199219 10.472656 C 115.199219 10.28125 115.261719 10.140625 115.28125 10.082031 Z M 117.777344 7.949219 L 120.011719 7.949219 L 118.917969 4.542969 L 118.894531 4.542969 L 117.777344 7.949219 "/>
<path fill-rule="nonzero" fill="rgb(56.898499%, 57.598877%, 58.399963%)" fill-opacity="1" d="M 123.355469 3.695312 C 123.355469 3.105469 123.734375 2.773438 124.238281 2.773438 C 124.742188 2.773438 125.121094 3.105469 125.121094 3.695312 L 125.121094 9.601562 L 127.214844 9.601562 C 127.816406 9.601562 128.074219 10.046875 128.0625 10.445312 C 128.039062 10.835938 127.734375 11.222656 127.214844 11.222656 L 124.273438 11.222656 C 123.695312 11.222656 123.355469 10.847656 123.355469 10.257812 L 123.355469 3.695312 "/>
<path fill-rule="nonzero" fill="rgb(56.898499%, 57.598877%, 58.399963%)" fill-opacity="1" d="M 130.898438 3.679688 C 131.097656 3.140625 131.558594 2.707031 132.15625 2.707031 C 132.78125 2.707031 133.21875 3.117188 133.417969 3.679688 L 135.726562 10.082031 C 135.792969 10.273438 135.816406 10.4375 135.816406 10.519531 C 135.816406 10.976562 135.441406 11.296875 135.007812 11.296875 C 134.511719 11.296875 134.265625 11.035156 134.148438 10.683594 L 133.792969 9.578125 L 130.523438 9.578125 L 130.167969 10.671875 C 130.054688 11.035156 129.804688 11.296875 129.320312 11.296875 C 128.851562 11.296875 128.449219 10.941406 128.449219 10.472656 C 128.449219 10.28125 128.511719 10.140625 128.535156 10.082031 Z M 131.027344 7.949219 L 133.265625 7.949219 L 132.171875 4.542969 L 132.144531 4.542969 L 131.027344 7.949219 "/>
<path fill-rule="nonzero" fill="rgb(56.898499%, 57.598877%, 58.399963%)" fill-opacity="1" d="M 136.605469 3.695312 C 136.605469 3.105469 136.984375 2.773438 137.488281 2.773438 C 137.996094 2.773438 138.371094 3.105469 138.371094 3.695312 L 138.371094 10.375 C 138.371094 10.964844 137.996094 11.292969 137.488281 11.292969 C 136.984375 11.292969 136.605469 10.964844 136.605469 10.375 L 136.605469 3.695312 "/>
<g clip-path="url(#clip-3)">
<path fill-rule="nonzero" fill="rgb(56.898499%, 57.598877%, 58.399963%)" fill-opacity="1" d="M 144.753906 3.902344 C 144.753906 4.359375 144.445312 4.769531 143.960938 4.769531 C 143.476562 4.769531 143.105469 4.417969 142.398438 4.417969 C 141.890625 4.417969 141.433594 4.6875 141.433594 5.183594 C 141.433594 6.394531 145.363281 5.617188 145.363281 8.652344 C 145.363281 10.335938 143.972656 11.382812 142.351562 11.382812 C 141.441406 11.382812 139.492188 11.171875 139.492188 10.066406 C 139.492188 9.609375 139.796875 9.230469 140.28125 9.230469 C 140.832031 9.230469 141.492188 9.6875 142.253906 9.6875 C 143.03125 9.6875 143.453125 9.253906 143.453125 8.675781 C 143.453125 7.289062 139.527344 8.125 139.527344 5.394531 C 139.527344 3.746094 140.878906 2.722656 142.445312 2.722656 C 143.105469 2.722656 144.753906 2.96875 144.753906 3.902344 "/>
</g>
<path fill-rule="nonzero" fill="rgb(56.898499%, 57.598877%, 58.399963%)" fill-opacity="1" d="M 108.316406 14.167969 C 108.28125 14.011719 108.269531 13.929688 108.269531 13.765625 C 108.269531 13.390625 108.585938 12.988281 109.105469 12.988281 C 109.671875 12.988281 109.941406 13.316406 110.046875 13.835938 L 111.046875 18.835938 L 111.070312 18.835938 L 112.601562 13.683594 C 112.730469 13.257812 113.085938 12.988281 113.519531 12.988281 C 113.953125 12.988281 114.304688 13.257812 114.4375 13.683594 L 115.964844 18.835938 L 115.992188 18.835938 L 116.992188 13.835938 C 117.097656 13.316406 117.367188 12.988281 117.929688 12.988281 C 118.449219 12.988281 118.765625 13.390625 118.765625 13.765625 C 118.765625 13.929688 118.753906 14.011719 118.71875 14.167969 L 117.226562 20.589844 C 117.109375 21.085938 116.71875 21.507812 116.058594 21.507812 C 115.484375 21.507812 115.039062 21.132812 114.894531 20.648438 L 113.53125 16.109375 L 113.507812 16.109375 L 112.140625 20.648438 C 112 21.132812 111.554688 21.507812 110.976562 21.507812 C 110.320312 21.507812 109.929688 21.085938 109.8125 20.589844 L 108.316406 14.167969 "/>
<path fill-rule="nonzero" fill="rgb(56.898499%, 57.598877%, 58.399963%)" fill-opacity="1" d="M 120.898438 13.898438 C 121.097656 13.351562 121.554688 12.917969 122.15625 12.917969 C 122.777344 12.917969 123.214844 13.328125 123.414062 13.898438 L 125.722656 20.296875 C 125.792969 20.484375 125.816406 20.648438 125.816406 20.730469 C 125.816406 21.191406 125.4375 21.507812 125.003906 21.507812 C 124.507812 21.507812 124.261719 21.25 124.144531 20.894531 L 123.789062 19.792969 L 120.519531 19.792969 L 120.167969 20.886719 C 120.050781 21.25 119.800781 21.507812 119.320312 21.507812 C 118.847656 21.507812 118.449219 21.15625 118.449219 20.683594 C 118.449219 20.496094 118.511719 20.355469 118.53125 20.296875 Z M 121.027344 18.167969 L 123.261719 18.167969 L 122.167969 14.753906 L 122.144531 14.753906 L 121.027344 18.167969 "/>
<path fill-rule="nonzero" fill="rgb(56.898499%, 57.598877%, 58.399963%)" fill-opacity="1" d="M 126.605469 13.90625 C 126.605469 13.316406 126.980469 12.988281 127.484375 12.988281 C 127.992188 12.988281 128.367188 13.316406 128.367188 13.90625 L 128.367188 19.8125 L 130.464844 19.8125 C 131.066406 19.8125 131.324219 20.261719 131.3125 20.664062 C 131.289062 21.050781 130.980469 21.4375 130.464844 21.4375 L 127.523438 21.4375 C 126.945312 21.4375 126.605469 21.058594 126.605469 20.472656 L 126.605469 13.90625 "/>
<path fill-rule="nonzero" fill="rgb(56.898499%, 57.598877%, 58.399963%)" fill-opacity="1" d="M 131.855469 13.90625 C 131.855469 13.316406 132.230469 12.988281 132.734375 12.988281 C 133.242188 12.988281 133.617188 13.316406 133.617188 13.90625 L 133.617188 19.8125 L 135.714844 19.8125 C 136.3125 19.8125 136.574219 20.261719 136.558594 20.664062 C 136.535156 21.050781 136.230469 21.4375 135.714844 21.4375 L 132.773438 21.4375 C 132.195312 21.4375 131.855469 21.058594 131.855469 20.472656 L 131.855469 13.90625 "/>
<path fill-rule="nonzero" fill="rgb(56.898499%, 57.598877%, 58.399963%)" fill-opacity="1" d="M 137.101562 13.90625 C 137.101562 13.316406 137.480469 12.988281 137.984375 12.988281 C 138.492188 12.988281 138.867188 13.316406 138.867188 13.90625 L 138.867188 20.589844 C 138.867188 21.175781 138.492188 21.507812 137.984375 21.507812 C 137.480469 21.507812 137.101562 21.175781 137.101562 20.589844 L 137.101562 13.90625 "/>
<g clip-path="url(#clip-4)">
<path fill-rule="nonzero" fill="rgb(56.898499%, 57.598877%, 58.399963%)" fill-opacity="1" d="M 144.878906 14.097656 C 144.878906 14.554688 144.574219 14.964844 144.089844 14.964844 C 143.609375 14.964844 143.230469 14.613281 142.527344 14.613281 C 142.019531 14.613281 141.5625 14.882812 141.5625 15.378906 C 141.5625 16.589844 145.492188 15.8125 145.492188 18.847656 C 145.492188 20.53125 144.105469 21.578125 142.480469 21.578125 C 141.574219 21.578125 139.621094 21.367188 139.621094 20.261719 C 139.621094 19.800781 139.925781 19.425781 140.410156 19.425781 C 140.960938 19.425781 141.617188 19.882812 142.386719 19.882812 C 143.160156 19.882812 143.585938 19.449219 143.585938 18.875 C 143.585938 17.484375 139.65625 18.320312 139.65625 15.589844 C 139.65625 13.941406 141.007812 12.917969 142.574219 12.917969 C 143.230469 12.917969 144.878906 13.164062 144.878906 14.097656 "/>
</g>
</svg>
